<svg version="1.0" xmlns="http://www.w3.org/2000/svg" viewBox="0 0 220.000000 200.000000"
 preserveAspectRatio="xMidYMid meet" style="background:#fff;">

<g transform="translate(0.000000,225.000000) scale(0.100000,-0.100000)"
fill="#000000" stroke="none">
<path d="M1021 1908 c-11 -35 -43 -137 -71 -228 -28 -91 -53 -171 -55 -178
-11 -31 -281 140 -405 256 -41 39 -93 97 -115 131 -22 33 -44 59 -50 57 -5 -2
-9 -8 -8 -14 1 -6 72 -158 157 -339 l154 -328 38 -2 c51 -3 74 -31 74 -88 0
-36 -5 -48 -31 -69 -75 -64 -167 1 -140 99 9 34 3 51 -121 313 -72 152 -143
306 -159 341 -23 49 -32 61 -42 52 -11 -8 -9 -27 10 -102 55 -221 46 -502 -22
-665 -8 -20 -15 -46 -15 -58 0 -11 90 -147 199 -301 l198 -280 66 -3 65 -3 15
48 c9 26 107 352 217 723 111 371 204 680 207 687 4 10 -13 13 -70 13 l-75 0
-21 -62z"/>
<path d="M1230 1923 c-5 -21 -16 -59 -24 -85 l-15 -48 148 0 c205 0 266 -24
316 -124 29 -58 34 -150 11 -194 -22 -43 -76 -89 -136 -116 -53 -25 -61 -26
-262 -26 l-207 0 -11 -42 c-6 -24 -15 -58 -20 -75 l-8 -33 223 0 c247 0 302
-7 387 -52 89 -47 128 -110 128 -207 0 -98 -66 -198 -165 -250 -38 -20 -55
-21 -314 -21 l-274 0 6 256 c4 142 4 255 1 252 -2 -3 -49 -153 -103 -334 l-98
-329 361 -8 c198 -4 375 -5 392 -2 61 11 190 82 252 140 135 125 169 313 87
475 -29 56 -102 125 -160 151 -24 11 -47 24 -50 29 -3 5 14 22 37 38 99 69
141 145 142 257 1 117 -50 227 -137 299 -72 59 -127 73 -324 80 l-172 6 -11
-37z" style="fill: #d42c27;"/>
</g>
</svg>
